<svg width="164" height="164" viewBox="0 0 164 164" fill="none" xmlns="http://www.w3.org/2000/svg">
<circle cx="82" cy="82" r="82" fill="#E61A27"/>
<g clip-path="url(#clip0_21_86)">
<path d="M84.7215 84.4248C88.139 84.4248 91.4165 85.7824 93.8331 88.1989C96.2496 90.6155 97.6072 93.893 97.6072 97.3105V102.143C97.6072 103.424 97.0981 104.653 96.1919 105.56C95.2857 106.466 94.0566 106.975 92.7751 106.975H54.1179C52.8363 106.975 51.6073 106.466 50.7011 105.56C49.7949 104.653 49.2858 103.424 49.2858 102.143V97.3105C49.2858 93.893 50.6434 90.6155 53.0599 88.1989C55.4764 85.7824 58.754 84.4248 62.1715 84.4248H84.7215ZM104.05 84.4248C106.613 84.4248 109.071 85.443 110.884 87.2554C112.696 89.0678 113.714 91.526 113.714 94.0891V98.9212C113.714 100.203 113.205 101.432 112.299 102.338C111.393 103.244 110.164 103.753 108.882 103.753H104.05V97.3105C104.052 94.8096 103.471 92.3427 102.352 90.1058C101.234 87.8689 99.6091 85.9237 97.6072 84.4248H104.05ZM73.4465 52.2105C77.2912 52.2105 80.9784 53.7378 83.697 56.4564C86.4156 59.175 87.9429 62.8623 87.9429 66.7069C87.9429 70.5516 86.4156 74.2389 83.697 76.9575C80.9784 79.6761 77.2912 81.2034 73.4465 81.2034C69.6018 81.2034 65.9146 79.6761 63.196 76.9575C60.4773 74.2389 58.9501 70.5516 58.9501 66.7069C58.9501 62.8623 60.4773 59.175 63.196 56.4564C65.9146 53.7378 69.6018 52.2105 73.4465 52.2105ZM100.829 61.8748C103.392 61.8748 105.85 62.893 107.662 64.7054C109.475 66.5178 110.493 68.976 110.493 71.5391C110.493 74.1022 109.475 76.5604 107.662 78.3728C105.85 80.1852 103.392 81.2034 100.829 81.2034C98.2655 81.2034 95.8073 80.1852 93.9949 78.3728C92.1825 76.5604 91.1643 74.1022 91.1643 71.5391C91.1643 68.976 92.1825 66.5178 93.9949 64.7054C95.8073 62.893 98.2655 61.8748 100.829 61.8748Z" fill="white"/>
</g>
<defs>
<clipPath id="clip0_21_86">
<rect width="99" height="99" fill="white" transform="translate(32 51)"/>
</clipPath>
</defs>
</svg>
