<svg width="164" height="164" viewBox="0 0 164 164" fill="none" xmlns="http://www.w3.org/2000/svg">
<circle cx="82" cy="82" r="82" fill="#E61A27"/>
<path d="M63.3333 106C61.8667 106 60.6116 105.478 59.568 104.435C58.5244 103.391 58.0018 102.135 58 100.667V63.3333C58 61.8667 58.5227 60.6116 59.568 59.568C60.6133 58.5244 61.8684 58.0018 63.3333 58H100.667C102.133 58 103.389 58.5227 104.435 59.568C105.48 60.6133 106.002 61.8684 106 63.3333V100.667C106 102.133 105.478 103.389 104.435 104.435C103.391 105.48 102.135 106.002 100.667 106H63.3333ZM66 95.3333H98L88 82L80 92.6667L74 84.6667L66 95.3333Z" fill="white"/>
</svg>
