<svg width="164" height="164" viewBox="0 0 164 164" fill="none" xmlns="http://www.w3.org/2000/svg">
<circle cx="82" cy="82" r="82" fill="#E61A27"/>
<g clip-path="url(#clip0_25_317)">
<path fill-rule="evenodd" clip-rule="evenodd" d="M67.588 60.36C72.9459 56.7927 79.4365 55.3397 85.804 56.2822C92.1714 57.2246 97.9628 60.4955 102.058 65.4618C106.152 70.4282 108.26 76.7369 107.971 83.1672C107.683 89.5975 105.019 95.6923 100.496 100.272C99.952 100.841 99.6534 101.601 99.6646 102.388C99.6758 103.175 99.996 103.926 100.556 104.48C101.116 105.033 101.871 105.344 102.658 105.345C103.445 105.347 104.202 105.039 104.764 104.488C109.201 99.9974 112.21 94.295 113.413 88.0983C114.617 81.9016 113.96 75.4873 111.527 69.6627C109.094 63.838 104.992 58.8632 99.738 55.3641C94.484 51.865 88.3125 49.998 82 49.998C75.6875 49.998 69.516 51.865 64.2621 55.3641C59.0081 58.8632 54.9064 63.838 52.4731 69.6627C50.0397 75.4873 49.3835 81.9016 50.5869 88.0983C51.7902 94.295 54.7995 99.9974 59.236 104.488C59.5111 104.776 59.8407 105.006 60.2057 105.165C60.5706 105.324 60.9635 105.409 61.3615 105.414C61.7596 105.42 62.1547 105.346 62.524 105.198C62.8933 105.049 63.2294 104.829 63.5126 104.549C63.7958 104.269 64.0205 103.936 64.1736 103.568C64.3267 103.201 64.4051 102.807 64.4043 102.409C64.4035 102.011 64.3235 101.617 64.1689 101.25C64.0144 100.883 63.7883 100.551 63.504 100.272C60.8093 97.5442 58.7513 94.2542 57.4774 90.6376C56.2035 87.0211 55.7453 83.1675 56.1357 79.3531C56.526 75.5386 57.7551 71.8578 59.7351 68.5741C61.715 65.2905 64.3967 62.4855 67.588 60.36ZM82 68C84.7564 68.0004 87.4513 68.8144 89.747 70.34C92.0426 71.8657 93.8369 74.035 94.9047 76.5761C95.9726 79.1172 96.2666 81.917 95.7499 84.6245C95.2332 87.332 93.9287 89.8268 92 91.796C91.7242 92.0775 91.5066 92.4107 91.3596 92.7763C91.2125 93.142 91.139 93.533 91.1431 93.9271C91.1471 94.3212 91.2288 94.7106 91.3834 95.0732C91.538 95.4357 91.7625 95.7642 92.044 96.04C92.3256 96.3158 92.6587 96.5334 93.0243 96.6804C93.39 96.8275 93.781 96.901 94.1751 96.8969C94.5692 96.8929 94.9586 96.8112 95.3212 96.6566C95.6837 96.502 96.0122 96.2775 96.288 95.996C99.0436 93.1827 100.907 89.6186 101.645 85.7504C102.384 81.8822 101.964 77.8822 100.438 74.2519C98.9118 70.6215 96.3482 67.5224 93.0683 65.3431C89.7883 63.1638 85.938 62.0012 82 62.0012C78.062 62.0012 74.2117 63.1638 70.9318 65.3431C67.6518 67.5224 65.0882 70.6215 63.5623 74.2519C62.0365 77.8822 61.6164 81.8822 62.3546 85.7504C63.0928 89.6186 64.9565 93.1827 67.712 95.996C68.2712 96.5521 69.0268 96.8656 69.8154 96.8688C70.6039 96.872 71.3621 96.5646 71.9257 96.0131C72.4893 95.4615 72.8131 94.7102 72.8271 93.9218C72.841 93.1333 72.5438 92.3711 72 91.8C70.07 89.831 68.7643 87.3359 68.2468 84.6277C67.7293 81.9195 68.023 79.1188 69.091 76.5769C70.1591 74.035 71.9539 71.865 74.2504 70.3392C76.5469 68.8133 79.2428 67.9996 82 68ZM90 82C90 84.1217 89.1572 86.1566 87.6569 87.6568C86.1566 89.1571 84.1217 90 82 90C79.8783 90 77.8435 89.1571 76.3432 87.6568C74.8429 86.1566 74 84.1217 74 82C74 79.8783 74.8429 77.8434 76.3432 76.3431C77.8435 74.8428 79.8783 74 82 74C84.1217 74 86.1566 74.8428 87.6569 76.3431C89.1572 77.8434 90 79.8783 90 82ZM85 99C85 98.2043 84.6839 97.4413 84.1213 96.8787C83.5587 96.3161 82.7957 96 82 96C81.2044 96 80.4413 96.3161 79.8787 96.8787C79.3161 97.4413 79 98.2043 79 99V111C79 111.796 79.3161 112.559 79.8787 113.121C80.4413 113.684 81.2044 114 82 114C82.7957 114 83.5587 113.684 84.1213 113.121C84.6839 112.559 85 111.796 85 111V99Z" fill="white"/>
</g>
<defs>
<clipPath id="clip0_25_317">
<rect width="64" height="64" fill="white" transform="translate(50 50)"/>
</clipPath>
</defs>
</svg>
