<svg width="164" height="164" viewBox="0 0 164 164" fill="none" xmlns="http://www.w3.org/2000/svg">
<circle cx="82" cy="82" r="82" fill="#E61A27"/>
<path d="M82 56.4C80.3026 56.4 78.6748 57.0743 77.4745 58.2745C76.2743 59.4748 75.6 61.1026 75.6 62.8V101.2C75.6 102.897 76.2743 104.525 77.4745 105.726C78.6748 106.926 80.3026 107.6 82 107.6C83.6974 107.6 85.3253 106.926 86.5255 105.726C87.7257 104.525 88.4 102.897 88.4 101.2V62.8C88.4 61.1026 87.7257 59.4748 86.5255 58.2745C85.3253 57.0743 83.6974 56.4 82 56.4ZM62.8 82C61.1026 82 59.4748 82.6743 58.2745 83.8745C57.0743 85.0748 56.4 86.7026 56.4 88.4V101.2C56.4 102.897 57.0743 104.525 58.2745 105.726C59.4748 106.926 61.1026 107.6 62.8 107.6C64.4974 107.6 66.1253 106.926 67.3255 105.726C68.5257 104.525 69.2 102.897 69.2 101.2V88.4C69.2 86.7026 68.5257 85.0748 67.3255 83.8745C66.1253 82.6743 64.4974 82 62.8 82ZM101.2 69.2C99.5026 69.2 97.8748 69.8743 96.6745 71.0745C95.4743 72.2748 94.8 73.9026 94.8 75.6V101.2C94.8 102.897 95.4743 104.525 96.6745 105.726C97.8748 106.926 99.5026 107.6 101.2 107.6C102.897 107.6 104.525 106.926 105.726 105.726C106.926 104.525 107.6 102.897 107.6 101.2V75.6C107.6 73.9026 106.926 72.2748 105.726 71.0745C104.525 69.8743 102.897 69.2 101.2 69.2Z" fill="white"/>
</svg>
