<svg width="164" height="164" viewBox="0 0 164 164" fill="none" xmlns="http://www.w3.org/2000/svg">
<circle cx="82" cy="82" r="82" fill="#E61A27"/>
<path d="M70.6666 79.1667C71.4694 79.1667 72.1428 78.8947 72.6868 78.3507C73.2308 77.8067 73.5018 77.1342 73.5 76.3333C73.5 75.5305 73.228 74.8581 72.684 74.316C72.14 73.7739 71.4675 73.5019 70.6666 73.5C69.8638 73.5 69.1914 73.772 68.6493 74.316C68.1072 74.86 67.8352 75.5324 67.8333 76.3333C67.8333 77.1361 68.1053 77.8095 68.6493 78.3535C69.1933 78.8975 69.8657 79.1685 70.6666 79.1667ZM82 79.1667C82.8027 79.1667 83.4761 78.8947 84.0201 78.3507C84.5641 77.8067 84.8352 77.1342 84.8333 76.3333C84.8333 75.5305 84.5613 74.8581 84.0173 74.316C83.4733 73.7739 82.8008 73.5019 82 73.5C81.1972 73.5 80.5247 73.772 79.9826 74.316C79.4405 74.86 79.1685 75.5324 79.1666 76.3333C79.1666 77.1361 79.4386 77.8095 79.9826 78.3535C80.5266 78.8975 81.1991 79.1685 82 79.1667ZM93.3333 79.1667C94.1361 79.1667 94.8095 78.8947 95.3535 78.3507C95.8975 77.8067 96.1685 77.1342 96.1666 76.3333C96.1666 75.5305 95.8946 74.8581 95.3506 74.316C94.8066 73.7739 94.1342 73.5019 93.3333 73.5C92.5305 73.5 91.8581 73.772 91.316 74.316C90.7738 74.86 90.5018 75.5324 90.5 76.3333C90.5 77.1361 90.772 77.8095 91.316 78.3535C91.86 78.8975 92.5324 79.1685 93.3333 79.1667ZM53.6666 110.333V59.3333C53.6666 57.775 54.222 56.4414 55.3326 55.3327C56.4433 54.2239 57.7768 53.6685 59.3333 53.6667H104.667C106.225 53.6667 107.559 54.222 108.67 55.3327C109.781 56.4433 110.335 57.7769 110.333 59.3333V93.3333C110.333 94.8917 109.779 96.2262 108.67 97.3368C107.561 98.4475 106.227 99.0019 104.667 99H65L53.6666 110.333Z" fill="white"/>
</svg>
