<svg width="106" height="106" viewBox="0 0 106 106" fill="none" xmlns="http://www.w3.org/2000/svg">
<path d="M17.6667 39.4098H88.3333V23.7837C88.3333 23.1035 88.0507 22.4807 87.4853 21.9154C86.9171 21.3471 86.2943 21.063 85.6171 21.063H20.3829C19.7057 21.063 19.0829 21.3471 18.5147 21.9154C17.9493 22.4807 17.6667 23.1035 17.6667 23.7837V39.4098ZM17.6667 62.1733H88.3333V43.8265H17.6667V62.1733ZM20.3829 84.9368H85.6171C86.2943 84.9368 86.9171 84.6527 87.4853 84.0844C88.0507 83.5191 88.3333 82.8963 88.3333 82.2162V66.59H17.6667V82.2162C17.6667 82.8963 17.9493 83.5191 18.5147 84.0844C19.0829 84.6527 19.7057 84.9368 20.3829 84.9368ZM25.4842 33.8051V26.6677H32.6215V33.8051H25.4842ZM25.4842 56.5686V49.4312H32.6215V56.5686H25.4842ZM25.4842 79.3321V72.1947H32.6215V79.3321H25.4842Z" fill="#CA323B"/>
</svg>
