<svg width="118" height="118" viewBox="0 0 118 118" fill="none" xmlns="http://www.w3.org/2000/svg">
<g clip-path="url(#clip0_13_29)">
<path d="M63.9166 63.9167C69.1326 63.9167 74.1349 65.9887 77.8231 69.6769C81.5113 73.3651 83.5833 78.3674 83.5833 83.5833V90.9583C83.5833 92.9143 82.8063 94.7902 81.4232 96.1732C80.0401 97.5563 78.1643 98.3333 76.2083 98.3333H17.2083C15.2523 98.3333 13.3765 97.5563 11.9934 96.1732C10.6103 94.7902 9.83331 92.9143 9.83331 90.9583V83.5833C9.83331 78.3674 11.9053 73.3651 15.5935 69.6769C19.2818 65.9887 24.2841 63.9167 29.5 63.9167H63.9166ZM93.4166 63.9167C97.3286 63.9167 101.08 65.4707 103.846 68.2368C106.613 71.003 108.167 74.7547 108.167 78.6667V86.0417C108.167 87.9976 107.39 89.8735 106.007 91.2566C104.623 92.6397 102.748 93.4167 100.792 93.4167H93.4166V83.5833C93.4197 79.7664 92.5325 76.0013 90.8255 72.5873C89.1185 69.1732 86.6387 66.2044 83.5833 63.9167H93.4166ZM46.7083 14.75C52.5762 14.75 58.2038 17.081 62.3531 21.2303C66.5023 25.3795 68.8333 31.0071 68.8333 36.875C68.8333 42.7429 66.5023 48.3705 62.3531 52.5197C58.2038 56.669 52.5762 59 46.7083 59C40.8404 59 35.2128 56.669 31.0636 52.5197C26.9143 48.3705 24.5833 42.7429 24.5833 36.875C24.5833 31.0071 26.9143 25.3795 31.0636 21.2303C35.2128 17.081 40.8404 14.75 46.7083 14.75ZM88.5 29.5C92.4119 29.5 96.1637 31.054 98.9298 33.8202C101.696 36.5863 103.25 40.3381 103.25 44.25C103.25 48.1619 101.696 51.9137 98.9298 54.6798C96.1637 57.446 92.4119 59 88.5 59C84.588 59 80.8363 57.446 78.0702 54.6798C75.304 51.9137 73.75 48.1619 73.75 44.25C73.75 40.3381 75.304 36.5863 78.0702 33.8202C80.8363 31.054 84.588 29.5 88.5 29.5Z" fill="#CA323B"/>
</g>
<defs>
<clipPath id="clip0_13_29">
<rect width="118" height="118" fill="white"/>
</clipPath>
</defs>
</svg>
