<svg width="106" height="106" viewBox="0 0 106 106" fill="none" xmlns="http://www.w3.org/2000/svg">
<path d="M49.9084 9.98155L23.4084 19.9191C19.9634 21.2441 17.6667 24.5124 17.6667 28.2224V48.9807C17.6667 70.3132 31.4909 90.3649 50.4825 96.4599C52.1167 96.9899 53.8834 96.9899 55.5175 96.4599C74.5092 90.3649 88.3334 70.3574 88.3334 48.9807V28.2224C88.3302 26.4251 87.7789 24.6715 86.753 23.1957C85.727 21.72 84.2753 20.5923 82.5917 19.9632L56.0917 10.0257C54.1042 9.23072 51.8959 9.23072 49.9084 9.98155ZM53 75.0832C40.81 75.0832 30.9167 65.1899 30.9167 52.9999C30.9167 40.8099 40.81 30.9165 53 30.9165C65.19 30.9165 75.0834 40.8099 75.0834 52.9999C75.0834 65.1899 65.19 75.0832 53 75.0832ZM61.8334 61.8332C60.95 62.7165 59.5809 62.7165 58.6975 61.8332L51.41 54.5457C50.9979 54.1353 50.7605 53.5814 50.7475 52.9999V41.9582C50.7917 40.7215 51.7634 39.7499 53 39.7499C54.2367 39.7499 55.2084 40.7215 55.2084 41.9582V52.0724L61.8334 58.6974C62.7167 59.5807 62.7167 60.9499 61.8334 61.8332Z" fill="#CA323B"/>
</svg>
