<svg width="107" height="106" viewBox="0 0 107 106" fill="none" xmlns="http://www.w3.org/2000/svg">
<path d="M22.2917 17.6667C22.2917 16.4953 21.8219 15.3719 20.9859 14.5436C20.1498 13.7153 19.0158 13.25 17.8333 13.25C16.6509 13.25 15.5169 13.7153 14.6808 14.5436C13.8447 15.3719 13.375 16.4953 13.375 17.6667V77.2917C13.375 81.3915 15.019 85.3234 17.9454 88.2224C20.8717 91.1214 24.8407 92.75 28.9792 92.75H89.1667C90.3491 92.75 91.4831 92.2847 92.3192 91.4564C93.1553 90.6281 93.625 89.5047 93.625 88.3333C93.625 87.162 93.1553 86.0386 92.3192 85.2103C91.4831 84.382 90.3491 83.9167 89.1667 83.9167H28.9792C27.2055 83.9167 25.5045 83.2187 24.2504 81.9762C22.9962 80.7338 22.2917 79.0487 22.2917 77.2917V17.6667ZM66.875 26.5C65.6926 26.5 64.5586 26.9653 63.7225 27.7936C62.8864 28.6219 62.4167 29.7453 62.4167 30.9167C62.4167 32.088 62.8864 33.2114 63.7225 34.0397C64.5586 34.868 65.6926 35.3333 66.875 35.3333H76.1751L59.0729 52.2757L51.0791 44.3566C50.2431 43.5286 49.1093 43.0634 47.9271 43.0634C46.7449 43.0634 45.6111 43.5286 44.775 44.3566L30.2855 58.7108C29.8596 59.1182 29.52 59.6055 29.2863 60.1444C29.0527 60.6832 28.9297 61.2628 28.9246 61.8492C28.9194 62.4357 29.0322 63.0173 29.2564 63.56C29.4805 64.1028 29.8116 64.596 30.2302 65.0107C30.6488 65.4254 31.1466 65.7533 31.6945 65.9754C32.2424 66.1974 32.8295 66.3092 33.4215 66.3041C34.0134 66.299 34.5985 66.1772 35.1424 65.9457C35.6863 65.7142 36.1783 65.3778 36.5895 64.9559L47.9271 53.7243L55.9209 61.6434C56.7569 62.4714 57.8907 62.9366 59.0729 62.9366C60.2551 62.9366 61.3889 62.4714 62.225 61.6434L82.4836 41.5785L82.4792 50.7917C82.4792 51.963 82.9489 53.0864 83.785 53.9147C84.6211 54.743 85.7551 55.2083 86.9375 55.2083C88.1199 55.2083 89.2539 54.743 90.09 53.9147C90.9261 53.0864 91.3958 51.963 91.3958 50.7917L91.4048 30.9167C91.4048 29.7453 90.935 28.6219 90.0989 27.7936C89.2628 26.9653 88.1288 26.5 86.9464 26.5H66.875Z" fill="#CA323B"/>
</svg>
